# xmcd
#
# Track frame offsets:
#  182
#  18517
#  39185
#  53970
#  87777
#  105390
#  116007
#  142420
#  162607
#  183680
#  198275
#  222902
#  243990
#  262292
#  283172
#  300445
#
# Disc length: 4321 seconds
#
# Revision: 6
# Processed by: cddbd v1.5.1PL2 Copyright (c) Steve Scherf et al.
# Submitted via: Collectorz.com_Music_Collector 6.11
#
DISCID=ef10df10
DTITLE=Calvin Russell - This Is My Life , The Story Of
DYEAR=1997
DGENRE=Classic Rock
TTITLE0=This Is My Life
TTITLE1=Crack In Time
TTITLE2=Big Brother
TTITLE3=Crossroads
TTITLE4=One Meat Ball
TTITLE5=Baby I Love You
TTITLE6=Soldier
TTITLE7=Rats And Roaches
TTITLE8=This Is Your World
TTITLE9=Don't Turn Your Head
TTITLE10=Trouble
TTITLE11=Valley Far Below
TTITLE12=Texas Song
TTITLE13=Let The Music Play
TTITLE14=It's All Over Now
TTITLE15=Forever Young
EXTD=
EXTT0=
EXTT1=
EXTT2=
EXTT3=
EXTT4=
EXTT5=
EXTT6=
EXTT7=
EXTT8=
EXTT9=
EXTT10=
EXTT11=
EXTT12=
EXTT13=
EXTT14=
EXTT15=
PLAYORDER=
